<svg width="33" height="34" viewBox="0 0 33 34" fill="none" xmlns="http://www.w3.org/2000/svg">
<path d="M33 34H27V31.0435H21V34H12V31.0435H3V34H0V0H33V34ZM12 31.0435H15V28.087H12V31.0435ZM18 31.0435H21V28.087H18V31.0435ZM27 31.0435H30V28.087H27V31.0435ZM3 28.087H12V25.1304H6V22.1739H15V19.2174H3V28.087ZM21 28.087H27V25.1304H21V28.087ZM18 25.1304H21V22.1739H18V25.1304ZM27 25.1304H30V22.1739H27V25.1304ZM21 22.1739H27V19.2174H21V22.1739ZM6 17.7391H12V14.7826H6V17.7391ZM21 17.7391H27V14.7826H21V17.7391ZM3 14.7826H6V11.8261H3V14.7826ZM12 14.7826H15V11.8261H12V14.7826ZM27 8.86957H21V11.8261H27V14.7826H30V5.91304H27V8.86957ZM9 11.8261H12V8.86957H9V11.8261ZM3 8.86957H6V5.91304H3V8.86957ZM12 8.86957H15V5.91304H12V8.86957ZM18 8.86957H21V5.91304H18V8.86957ZM6 5.91304H12V2.95652H6V5.91304ZM21 5.91304H27V2.95652H21V5.91304Z" fill="#0026BE"/>
</svg>
