<svg width="178" height="202" viewBox="0 0 178 202" fill="none" xmlns="http://www.w3.org/2000/svg">
<g filter="url(#filter0_d_1520_6)">
<path d="M74.4 121.9C55.9 121.9 26.9 125.9 26.9 139.4V38.4C26.9 29.9 32.9 15.9 62.4 15.9H87.4004C108.142 15.9 118.513 15.9 124.956 22.3437C131.4 28.7873 131.4 39.1582 131.4 59.9V77.9C131.4 98.6418 131.4 109.013 124.956 115.456C118.513 121.9 108.141 121.9 87.3969 121.9H74.4Z" fill="url(#paint0_linear_1520_6)"/>
<path d="M74.4 121.9C55.9 121.9 26.9 125.9 26.9 139.4V38.4C26.9 29.9 32.9 15.9 62.4 15.9H87.4004C108.142 15.9 118.513 15.9 124.956 22.3437C131.4 28.7873 131.4 39.1582 131.4 59.9V77.9C131.4 98.6418 131.4 109.013 124.956 115.456C118.513 121.9 108.141 121.9 87.3969 121.9H74.4Z" fill="url(#paint1_linear_1520_6)"/>
</g>
<g filter="url(#filter1_d_1520_6)">
<path d="M83.2637 58.3292C61.3115 58.3292 26.9 54.3454 26.9 40.9V141.491C26.9 149.957 34.0196 163.9 69.0244 163.9H106.902C127.643 163.9 138.013 163.9 144.456 157.456C150.9 151.013 150.9 140.642 150.9 119.9V102.329C150.9 81.5874 150.9 71.2165 144.456 64.7728C138.013 58.3292 127.641 58.3292 106.897 58.3292H83.2637Z" fill="url(#paint2_linear_1520_6)"/>
</g>
<path d="M26.9 40.9C26.9 54.3453 61.3111 58.3287 83.2633 58.3287H106.897C117.478 58.3287 125.36 58.331 131.399 59.1862C131.399 59.4227 131.4 59.6607 131.4 59.9V77.9C131.4 98.6418 131.4 109.013 124.957 115.457C118.513 121.9 108.141 121.9 87.3971 121.9H74.4C55.9 121.9 26.9 125.9 26.9 139.4V40.9Z" fill="url(#paint3_linear_1520_6)"/>
<circle opacity="0.54" cx="111.4" cy="101.4" r="17.5" fill="url(#paint4_linear_1520_6)"/>
<defs>
<filter id="filter0_d_1520_6" x="2.47955e-05" y="2.47955e-05" width="158.3" height="177.3" filterUnits="userSpaceOnUse" color-interpolation-filters="sRGB">
<feFlood flood-opacity="0" result="BackgroundImageFix"/>
<feColorMatrix in="SourceAlpha" type="matrix" values="0 0 0 0 0 0 0 0 0 0 0 0 0 0 0 0 0 0 127 0" result="hardAlpha"/>
<feOffset dy="11"/>
<feGaussianBlur stdDeviation="13.45"/>
<feComposite in2="hardAlpha" operator="out"/>
<feColorMatrix type="matrix" values="0 0 0 0 0 0 0 0 0 0 0 0 0 0 0 0 0 0 0.38 0"/>
<feBlend mode="normal" in2="BackgroundImageFix" result="effect1_dropShadow_1520_6"/>
<feBlend mode="normal" in="SourceGraphic" in2="effect1_dropShadow_1520_6" result="shape"/>
</filter>
<filter id="filter1_d_1520_6" x="2.47955e-05" y="25" width="177.8" height="176.8" filterUnits="userSpaceOnUse" color-interpolation-filters="sRGB">
<feFlood flood-opacity="0" result="BackgroundImageFix"/>
<feColorMatrix in="SourceAlpha" type="matrix" values="0 0 0 0 0 0 0 0 0 0 0 0 0 0 0 0 0 0 127 0" result="hardAlpha"/>
<feOffset dy="11"/>
<feGaussianBlur stdDeviation="13.45"/>
<feComposite in2="hardAlpha" operator="out"/>
<feColorMatrix type="matrix" values="0 0 0 0 0 0 0 0 0 0 0 0 0 0 0 0 0 0 0.38 0"/>
<feBlend mode="normal" in2="BackgroundImageFix" result="effect1_dropShadow_1520_6"/>
<feBlend mode="normal" in="SourceGraphic" in2="effect1_dropShadow_1520_6" result="shape"/>
</filter>
<linearGradient id="paint0_linear_1520_6" x1="26.9" y1="77.65" x2="131.4" y2="77.65" gradientUnits="userSpaceOnUse">
<stop stop-color="#0000C4"/>
<stop offset="1" stop-color="#0077FF"/>
</linearGradient>
<linearGradient id="paint1_linear_1520_6" x1="131.4" y1="77.65" x2="26.9" y2="77.65" gradientUnits="userSpaceOnUse">
<stop stop-opacity="0"/>
<stop offset="0.576966" stop-opacity="0.269269"/>
<stop offset="0.826969" stop-opacity="0.475221"/>
<stop offset="1"/>
</linearGradient>
<linearGradient id="paint2_linear_1520_6" x1="31.4" y1="155.4" x2="146.4" y2="54.9" gradientUnits="userSpaceOnUse">
<stop stop-color="#5100FF"/>
<stop offset="0.562542" stop-color="#364AFF"/>
<stop offset="1" stop-color="#4BC6FF"/>
</linearGradient>
<linearGradient id="paint3_linear_1520_6" x1="123.9" y1="58.4" x2="26.9" y2="120.9" gradientUnits="userSpaceOnUse">
<stop stop-color="#85C4FF"/>
<stop offset="0.5" stop-color="#5874FF"/>
<stop offset="1" stop-color="#5C09FF"/>
</linearGradient>
<linearGradient id="paint4_linear_1520_6" x1="120.9" y1="83.9" x2="100.9" y2="118.9" gradientUnits="userSpaceOnUse">
<stop stop-color="#0051FF"/>
<stop offset="1" stop-color="#6600FF"/>
</linearGradient>
</defs>
</svg>
