<svg width="164" height="175" viewBox="0 0 164 175" fill="none" xmlns="http://www.w3.org/2000/svg">
<g filter="url(#filter0_d_1137_42)">
<path d="M106.832 38.4263C128.891 51.1622 139.921 57.5302 143.953 65.6541C148.131 74.069 148.131 83.9534 143.953 92.3683C139.921 100.492 128.891 106.86 106.832 119.596L86.295 131.453C64.2358 144.189 53.2062 150.557 44.1543 149.987C34.7783 149.397 26.218 144.455 21.0191 136.63C16 129.076 16 116.34 16 90.8682V67.1543C16 41.6825 16 28.9466 21.0191 21.3922C26.218 13.5672 34.7783 8.62499 44.1543 8.0351C53.2062 7.46561 64.2358 13.8335 86.295 26.5694L106.832 38.4263Z" fill="url(#paint0_linear_1137_42)"/>
</g>
<path d="M29.6548 12.5578C42.3993 3.90974 55.8296 8.46131 68.3434 15.7439C86.8533 26.516 123.964 48.3334 126.149 49.4257C132.521 52.6119 147.512 59.8944 147.086 79.9215C146.592 103.135 119.777 104.045 103.846 96.3073C87.9153 88.5696 47.8612 66.2667 31.0203 54.8877C13.8035 43.2547 13.269 23.6766 29.6548 12.5578Z" fill="url(#paint1_linear_1137_42)"/>
<defs>
<filter id="filter0_d_1137_42" x="0" y="0" width="163.086" height="174.022" filterUnits="userSpaceOnUse" color-interpolation-filters="sRGB">
<feFlood flood-opacity="0" result="BackgroundImageFix"/>
<feColorMatrix in="SourceAlpha" type="matrix" values="0 0 0 0 0 0 0 0 0 0 0 0 0 0 0 0 0 0 127 0" result="hardAlpha"/>
<feOffset dy="8"/>
<feGaussianBlur stdDeviation="8"/>
<feComposite in2="hardAlpha" operator="out"/>
<feColorMatrix type="matrix" values="0 0 0 0 0 0 0 0 0 0 0 0 0 0 0 0 0 0 0.25 0"/>
<feBlend mode="normal" in2="BackgroundImageFix" result="effect1_dropShadow_1137_42"/>
<feBlend mode="normal" in="SourceGraphic" in2="effect1_dropShadow_1137_42" result="shape"/>
</filter>
<linearGradient id="paint0_linear_1137_42" x1="16" y1="78.8413" x2="90.5" y2="133.841" gradientUnits="userSpaceOnUse">
<stop stop-color="#003FD2"/>
<stop offset="1" stop-color="#000C57"/>
</linearGradient>
<linearGradient id="paint1_linear_1137_42" x1="82.2292" y1="7.84131" x2="82.2292" y2="97.9888" gradientUnits="userSpaceOnUse">
<stop stop-color="#00CCFF"/>
<stop offset="1" stop-color="#005DFF"/>
</linearGradient>
</defs>
</svg>
