<svg width="174" height="162" viewBox="0 0 174 162" fill="none" xmlns="http://www.w3.org/2000/svg">
<g filter="url(#filter0_d_697_29)">
<path d="M16 56C16 33.3726 16 22.0589 23.0294 15.0294C30.0589 8 41.3726 8 64 8H109C131.627 8 142.941 8 149.971 15.0294C157 22.0589 157 33.3726 157 56V90C157 112.627 157 123.941 149.971 130.971C142.941 138 131.627 138 109 138H64C41.3726 138 30.0589 138 23.0294 130.971C16 123.941 16 112.627 16 90V56Z" fill="url(#paint0_linear_697_29)"/>
<path d="M16 56C16 33.3726 16 22.0589 23.0294 15.0294C30.0589 8 41.3726 8 64 8H109.26C131.888 8 143.201 8 150.231 15.0294C157.26 22.0589 157.26 33.3726 157.26 56V71.7886C157.26 94.416 157.26 105.73 150.231 112.759C143.201 119.789 131.888 119.789 109.26 119.789H64C41.3726 119.789 30.0589 119.789 23.0294 112.759C16 105.73 16 94.416 16 71.7886V56Z" fill="#DFE2E6"/>
<path d="M107.25 98.0061C101.813 98.0061 96.944 96.6783 92.6446 94.0228C88.3451 91.304 84.9625 87.3839 82.4966 82.2625C80.0308 77.1411 78.7979 70.9449 78.7979 63.6738C78.7979 56.4027 80.0308 50.2064 82.4966 45.085C84.9625 39.9636 88.3451 36.0752 92.6446 33.4196C96.944 30.7009 101.813 29.3415 107.25 29.3415C112.751 29.3415 117.619 30.7009 121.855 33.4196C126.155 36.0752 129.538 39.9636 132.003 45.085C134.469 50.2064 135.702 56.4027 135.702 63.6738C135.702 70.9449 134.469 77.1411 132.003 82.2625C129.538 87.3839 126.155 91.304 121.855 94.0228C117.619 96.6783 112.751 98.0061 107.25 98.0061ZM107.25 85.0129C109.842 85.0129 112.087 84.2858 113.984 82.8316C115.944 81.3774 117.461 79.0696 118.536 75.9082C119.674 72.7469 120.243 68.6687 120.243 63.6738C120.243 58.6788 119.674 54.6007 118.536 51.4393C117.461 48.278 115.944 45.9702 113.984 44.516C112.087 43.0618 109.842 42.3346 107.25 42.3346C104.721 42.3346 102.476 43.0618 100.516 44.516C98.6195 45.9702 97.1021 48.278 95.964 51.4393C94.8891 54.6007 94.3517 58.6788 94.3517 63.6738C94.3517 68.6687 94.8891 72.7469 95.964 75.9082C97.1021 79.0696 98.6195 81.3774 100.516 82.8316C102.476 84.2858 104.721 85.0129 107.25 85.0129Z" fill="#232A33"/>
<path d="M51.9005 96.8678V36.1698L58.5393 42.8086H38.6228V30.4794H67.2647V96.8678H51.9005Z" fill="#232A33"/>
</g>
<defs>
<filter id="filter0_d_697_29" x="0" y="0" width="173.26" height="162" filterUnits="userSpaceOnUse" color-interpolation-filters="sRGB">
<feFlood flood-opacity="0" result="BackgroundImageFix"/>
<feColorMatrix in="SourceAlpha" type="matrix" values="0 0 0 0 0 0 0 0 0 0 0 0 0 0 0 0 0 0 127 0" result="hardAlpha"/>
<feOffset dy="8"/>
<feGaussianBlur stdDeviation="8"/>
<feComposite in2="hardAlpha" operator="out"/>
<feColorMatrix type="matrix" values="0 0 0 0 0 0 0 0 0 0 0 0 0 0 0 0 0 0 0.25 0"/>
<feBlend mode="normal" in2="BackgroundImageFix" result="effect1_dropShadow_697_29"/>
<feBlend mode="normal" in="SourceGraphic" in2="effect1_dropShadow_697_29" result="shape"/>
</filter>
<linearGradient id="paint0_linear_697_29" x1="41.8669" y1="105.764" x2="145" y2="135.655" gradientUnits="userSpaceOnUse">
<stop stop-color="#6504E3"/>
<stop offset="0.278885" stop-color="#1703C6"/>
<stop offset="1" stop-color="#0E027D"/>
</linearGradient>
</defs>
</svg>
