<svg width="166" height="152" viewBox="0 0 166 152" fill="none" xmlns="http://www.w3.org/2000/svg">
<g filter="url(#filter0_d_1137_39)">
<path d="M144.378 49.6717C144.378 32.2654 142.035 24.0203 123.762 21.7301C99.5548 17.7602 56.3874 10.645 41.7692 8.44631C23.4965 5.69796 16 15.7753 16 35.0138V95.4776C16 119.755 22.5594 128 48.3287 125.71C60.6979 124.61 114.079 116.548 142.035 106.929C143.909 92.5766 144.378 58.4664 144.378 49.6717Z" fill="url(#paint0_linear_1137_39)"/>
<path d="M44.1119 49.2137V128C72.6923 124.335 121.83 117.622 129.385 117.006C146.252 115.632 150 105.097 150 87.6907L150 42.8009C120.483 39.5944 67.7259 33.9145 60.979 33.1816C44.1119 31.3494 44.1119 37.7622 44.1119 49.2137Z" fill="url(#paint1_linear_1137_39)"/>
</g>
<defs>
<filter id="filter0_d_1137_39" x="0" y="0" width="166" height="152" filterUnits="userSpaceOnUse" color-interpolation-filters="sRGB">
<feFlood flood-opacity="0" result="BackgroundImageFix"/>
<feColorMatrix in="SourceAlpha" type="matrix" values="0 0 0 0 0 0 0 0 0 0 0 0 0 0 0 0 0 0 127 0" result="hardAlpha"/>
<feOffset dy="8"/>
<feGaussianBlur stdDeviation="8"/>
<feComposite in2="hardAlpha" operator="out"/>
<feColorMatrix type="matrix" values="0 0 0 0 0 0 0 0 0 0 0 0 0 0 0 0 0 0 0.25 0"/>
<feBlend mode="normal" in2="BackgroundImageFix" result="effect1_dropShadow_1137_39"/>
<feBlend mode="normal" in="SourceGraphic" in2="effect1_dropShadow_1137_39" result="shape"/>
</filter>
<linearGradient id="paint0_linear_1137_39" x1="80.1888" y1="8" x2="35.9208" y2="123.98" gradientUnits="userSpaceOnUse">
<stop stop-color="#003D7F"/>
<stop offset="1" stop-color="#001020"/>
</linearGradient>
<linearGradient id="paint1_linear_1137_39" x1="130.79" y1="19.9096" x2="50.7546" y2="126.249" gradientUnits="userSpaceOnUse">
<stop stop-color="#00C8FF"/>
<stop offset="1" stop-color="#0077FF"/>
</linearGradient>
</defs>
</svg>
