<svg version="1.1" xmlns="http://www.w3.org/2000/svg" xmlns:xlink="http://www.w3.org/1999/xlink" width="126.08336" height="134.47051" viewBox="0,0,126.08336,134.47051"><g transform="translate(-176.95832,-112.76462)"><g data-paper-data="{&quot;isPaintingLayer&quot;:true}" fill-rule="nonzero" stroke-linejoin="miter" stroke-miterlimit="10" stroke-dasharray="" stroke-dashoffset="0" style="mix-blend-mode: normal"><path d="M194.63309,220.46618c2.67272,0 4.26941,0 5.34544,0.45124c1.52727,0.55537 2.74214,1.77024 3.29751,3.29751c0.45124,1.07603 0.45124,2.67272 0.45124,5.34544v8.33056c0,2.67271 0,4.26941 -0.45124,5.34544c-0.55537,1.52727 -1.77024,2.74214 -3.29751,3.29751c-1.07603,0.45124 -2.67272,0.45124 -5.34544,0.45124h-8.33056c-2.67272,0 -4.26941,0 -5.31073,-0.45124c-1.56198,-0.55537 -2.77686,-1.77024 -3.33223,-3.29751c-0.45124,-1.07603 -0.45124,-2.67272 -0.45124,-5.34544v-8.33056c0,-2.67272 0,-4.26941 0.45124,-5.34544c0.55537,-1.52728 1.77025,-2.74215 3.33223,-3.29752c1.04132,-0.45124 2.63801,-0.45124 5.31073,-0.45124h8.33056z" fill="none" stroke="#8a8a8a" stroke-width="0.5" stroke-linecap="butt"/><path d="M299.04291,185.46864c1.52727,0.55537 2.74215,1.77024 3.29752,3.29751c0.45124,1.07603 0.45123,2.67272 0.45123,5.34544v8.33056c0,2.67271 0.00001,4.26941 -0.45123,5.34544c-0.55538,1.52726 -1.77025,2.74214 -3.29752,3.29751c-1.07603,0.45123 -2.67272,0.45123 -5.34544,0.45123h-8.33056c-2.67272,0 -4.26941,0.00001 -5.31073,-0.45123c-1.56198,-0.55537 -2.77685,-1.77024 -3.33222,-3.29751c-0.45124,-1.07603 -0.45124,-2.67272 -0.45124,-5.34544v-8.33056c0,-2.67272 0,-4.26941 0.45124,-5.34544c0.55537,-1.52727 1.77024,-2.74214 3.33222,-3.29751c1.04132,-0.45124 2.63801,-0.45124 5.31073,-0.45124h8.33056c2.67272,0 4.26941,0 5.34544,0.45124z" fill="none" stroke="#8a8a8a" stroke-width="0.5" stroke-linecap="butt"/><path d="M290.81895,246.98511c-9.48508,0 -81.54388,0 -99.5625,0c-8.30206,0 -14.04811,-7.68628 -14.04811,-13.35708c0,-9.94395 0,-41.07149 0,-41.07149h125.58334c0,0 0,28.96437 0,39.0033c0,6.31326 -6.30741,15.42527 -11.97273,15.42527z" fill="none" stroke="#8a8a8a" stroke-width="0.5" stroke-linecap="butt"/><path d="M185.82529,185.18563c0.57796,0.21017 1.03771,0.66993 1.24788,1.24789c0.17076,0.4072 0.17076,1.01144 0.17076,2.02288v3.15255c0,1.01144 0.00001,1.61568 -0.17076,2.02288c-0.21017,0.57796 -0.66991,1.03771 -1.24788,1.24788c-0.40721,0.17077 -1.01145,0.17077 -2.02289,0.17077h-3.15254c-1.01144,0 -1.61568,0 -2.00975,-0.17077c-0.59109,-0.21017 -1.05084,-0.66992 -1.26101,-1.24788c-0.17077,-0.4072 -0.17077,-1.01144 -0.17077,-2.02288v-3.15255c0,-1.01144 0,-1.61568 0.17077,-2.02288c0.21017,-0.57797 0.66991,-1.03772 1.26101,-1.24789c0.39407,-0.17077 0.99831,-0.17076 2.00975,-0.17076h3.15254c1.01144,0 1.61569,-0.00001 2.02289,0.17076z" fill="none" stroke="#8a8a8a" stroke-width="0.5" stroke-linecap="butt"/><path d="M177.20832,195.05047c0,0 0,-3.41198 0,-5.24278c0,-1.39363 2.78482,-4.73738 5.16667,-4.73738c10.08415,0 105.41667,-0.05544 105.41667,-0.05544v10.03561z" fill="none" stroke="#8a8a8a" stroke-width="0.5" stroke-linecap="butt"/><path d="M293.69749,220.46617c2.67272,0 4.26941,0 5.34544,0.45124c1.52727,0.55537 2.74214,1.77024 3.29751,3.29751c0.45124,1.07603 0.45124,2.67272 0.45124,5.34544v8.33056c0,2.67271 0,4.26941 -0.45124,5.34544c-0.55537,1.52727 -1.77024,2.74214 -3.29751,3.29751c-1.07603,0.45124 -2.67272,0.45124 -5.34544,0.45124h-8.33056c-2.67272,0 -4.26941,0 -5.31073,-0.45124c-1.56198,-0.55537 -2.77686,-1.77024 -3.33223,-3.29751c-0.45124,-1.07603 -0.45124,-2.67272 -0.45124,-5.34544v-8.33056c0,-2.67272 0,-4.26941 0.45124,-5.34544c0.55537,-1.52728 1.77025,-2.74215 3.33223,-3.29752c1.04132,-0.45124 2.63801,-0.45124 5.31073,-0.45124h8.33056z" fill="none" stroke="#8a8a8a" stroke-width="0.5" stroke-linecap="butt"/><g fill="none" stroke="#8a8a8a" stroke-width="0.5" stroke-linecap="butt"><path d="M207.30251,148.46618h8.33056c2.67272,0 4.26941,0 5.31073,0.45124c1.56198,0.55537 2.77686,1.77024 3.33223,3.29752c0.45124,1.07603 0.45124,2.67272 0.45124,5.34544v8.33056c0,2.67272 0,4.26941 -0.45124,5.34544c-0.55537,1.52727 -1.77025,2.74214 -3.33223,3.29751c-1.04132,0.45124 -2.63801,0.45124 -5.31073,0.45124h-8.33056c-2.67272,0 -4.26941,0 -5.34544,-0.45124c-1.52727,-0.55537 -2.74214,-1.77024 -3.29751,-3.29751c-0.45124,-1.07603 -0.45124,-2.67273 -0.45124,-5.34544v-8.33056c0,-2.67272 0,-4.26941 0.45124,-5.34544c0.55537,-1.52727 1.77024,-2.74214 3.29751,-3.29751c1.07603,-0.45124 2.67272,-0.45124 5.34544,-0.45124z"/><path d="M264.3669,148.46618h8.33056c2.67272,0 4.26941,0 5.31073,0.45124c1.56198,0.55537 2.77686,1.77024 3.33223,3.29752c0.45124,1.07603 0.45124,2.67272 0.45124,5.34544v8.33056c0,2.67272 0,4.26941 -0.45124,5.34544c-0.55537,1.52727 -1.77025,2.74214 -3.33223,3.29751c-1.04132,0.45124 -2.63801,0.45124 -5.31073,0.45124h-8.33056c-2.67272,0 -4.26941,0 -5.34544,-0.45124c-1.52727,-0.55537 -2.74214,-1.77024 -3.29751,-3.29751c-0.45124,-1.07603 -0.45124,-2.67273 -0.45124,-5.34544v-8.33056c0,-2.67272 0,-4.26941 0.45124,-5.34544c0.55537,-1.52727 1.77024,-2.74214 3.29751,-3.29751c1.07603,-0.45124 2.67272,-0.45124 5.34544,-0.45124z"/><path d="M207.30252,113.01741h8.33056c2.67272,0 4.26941,0 5.31073,0.45124c1.56198,0.55537 2.77685,1.77024 3.33222,3.29751c0.45124,1.07603 0.45124,2.67272 0.45124,5.34544v8.33056c0,2.67272 0,4.26941 -0.45124,5.34544c-0.55537,1.52727 -1.77024,2.74214 -3.33222,3.29751c-1.04132,0.45124 -2.63801,0.45123 -5.31073,0.45123h-8.33056c-2.67272,0 -4.26941,0 -5.34544,-0.45123c-1.52727,-0.55537 -2.74214,-1.77025 -3.29752,-3.29751c-0.45124,-1.07603 -0.45123,-2.67273 -0.45123,-5.34544v-8.33056c0,-2.67272 -0.00001,-4.26941 0.45123,-5.34544c0.55537,-1.52727 1.77025,-2.74214 3.29752,-3.29751c1.07603,-0.45124 2.67272,-0.45124 5.34544,-0.45124z"/><path d="M198.20831,159.55985c0,-10.03893 0,-39.0033 0,-39.0033h83.58334c0,0 0,31.12754 0,41.07149c0,5.6708 -5.74605,13.35708 -14.04811,13.35708c-18.01862,0 -48.07742,0 -57.5625,0c-5.66532,0 -11.97273,-9.11201 -11.97273,-15.42527z"/><path d="M275.19759,113.01488h3.15254c1.01144,0 1.61568,-0.00001 2.00975,0.17076c0.5911,0.21017 1.05084,0.66992 1.26101,1.24789c0.17077,0.4072 0.17077,1.01144 0.17077,2.02288v3.15255c0,1.01144 0,1.61568 -0.17077,2.02288c-0.21017,0.57796 -0.66992,1.03771 -1.26101,1.24788c-0.39407,0.17077 -0.99831,0.17077 -2.00975,0.17077h-3.15254c-1.01144,0 -1.61568,0 -2.02289,-0.17077c-0.57797,-0.21017 -1.03771,-0.66992 -1.24788,-1.24788c-0.17077,-0.4072 -0.17076,-1.01144 -0.17076,-2.02288v-3.15255c0,-1.01144 0,-1.61568 0.17076,-2.02288c0.21017,-0.57796 0.66992,-1.03772 1.24788,-1.24789c0.4072,-0.17077 1.01145,-0.17076 2.02289,-0.17076z"/><path d="M213.20833,123.05049v-10.03561c0,0 53.33252,0.05544 63.41667,0.05544c2.38185,0 5.16667,3.34375 5.16667,4.73738c0,1.8308 0,5.24278 0,5.24278z"/></g><path d="M207.30251,148.46618h8.33056c2.67272,0 4.26941,0 5.31073,0.45124c1.56198,0.55537 2.77686,1.77024 3.33223,3.29752c0.45124,1.07603 0.45124,2.67272 0.45124,5.34544v8.33056c0,2.67272 0,4.26941 -0.45124,5.34544c-0.55537,1.52727 -1.77025,2.74214 -3.33223,3.29751c-1.04132,0.45124 -2.63801,0.45124 -5.31073,0.45124h-8.33056c-2.67272,0 -4.26941,0 -5.34544,-0.45124c-1.52727,-0.55537 -2.74214,-1.77024 -3.29751,-3.29751c-0.45124,-1.07603 -0.45124,-2.67273 -0.45124,-5.34544v-8.33056c0,-2.67272 0,-4.26941 0.45124,-5.34544c0.55537,-1.52727 1.77024,-2.74214 3.29751,-3.29751c1.07603,-0.45124 2.67272,-0.45124 5.34544,-0.45124z" fill="#ffffff" stroke="none" stroke-width="1" stroke-linecap="butt"/><path d="M264.3669,148.46618h8.33056c2.67272,0 4.26941,0 5.31073,0.45124c1.56198,0.55537 2.77686,1.77024 3.33223,3.29752c0.45124,1.07603 0.45124,2.67272 0.45124,5.34544v8.33056c0,2.67272 0,4.26941 -0.45124,5.34544c-0.55537,1.52727 -1.77025,2.74214 -3.33223,3.29751c-1.04132,0.45124 -2.63801,0.45124 -5.31073,0.45124h-8.33056c-2.67272,0 -4.26941,0 -5.34544,-0.45124c-1.52727,-0.55537 -2.74214,-1.77024 -3.29751,-3.29751c-0.45124,-1.07603 -0.45124,-2.67273 -0.45124,-5.34544v-8.33056c0,-2.67272 0,-4.26941 0.45124,-5.34544c0.55537,-1.52727 1.77024,-2.74214 3.29751,-3.29751c1.07603,-0.45124 2.67272,-0.45124 5.34544,-0.45124z" fill="#ffffff" stroke="none" stroke-width="1" stroke-linecap="butt"/><path d="M207.30252,113.01741h8.33056c2.67272,0 4.26941,0 5.31073,0.45124c1.56198,0.55537 2.77685,1.77024 3.33222,3.29751c0.45124,1.07603 0.45124,2.67272 0.45124,5.34544v8.33056c0,2.67272 0,4.26941 -0.45124,5.34544c-0.55537,1.52727 -1.77024,2.74214 -3.33222,3.29751c-1.04132,0.45124 -2.63801,0.45123 -5.31073,0.45123h-8.33056c-2.67272,0 -4.26941,0 -5.34544,-0.45123c-1.52727,-0.55537 -2.74214,-1.77025 -3.29752,-3.29751c-0.45124,-1.07603 -0.45123,-2.67273 -0.45123,-5.34544v-8.33056c0,-2.67272 -0.00001,-4.26941 0.45123,-5.34544c0.55537,-1.52727 1.77025,-2.74214 3.29752,-3.29751c1.07603,-0.45124 2.67272,-0.45124 5.34544,-0.45124z" fill="#d9e2f9" stroke="none" stroke-width="1" stroke-linecap="butt"/><path d="M198.20831,159.55985c0,-10.03893 0,-39.0033 0,-39.0033h83.58334c0,0 0,31.12754 0,41.07149c0,5.6708 -5.74605,13.35708 -14.04811,13.35708c-18.01862,0 -48.07742,0 -57.5625,0c-5.66532,0 -11.97273,-9.11201 -11.97273,-15.42527z" fill="#ffffff" stroke="none" stroke-width="NaN" stroke-linecap="butt"/><path d="M275.19759,113.01488h3.15254c1.01144,0 1.61568,-0.00001 2.00975,0.17076c0.5911,0.21017 1.05084,0.66992 1.26101,1.24789c0.17077,0.4072 0.17077,1.01144 0.17077,2.02288v3.15255c0,1.01144 0,1.61568 -0.17077,2.02288c-0.21017,0.57796 -0.66992,1.03771 -1.26101,1.24788c-0.39407,0.17077 -0.99831,0.17077 -2.00975,0.17077h-3.15254c-1.01144,0 -1.61568,0 -2.02289,-0.17077c-0.57797,-0.21017 -1.03771,-0.66992 -1.24788,-1.24788c-0.17077,-0.4072 -0.17076,-1.01144 -0.17076,-2.02288v-3.15255c0,-1.01144 0,-1.61568 0.17076,-2.02288c0.21017,-0.57796 0.66992,-1.03772 1.24788,-1.24789c0.4072,-0.17077 1.01145,-0.17076 2.02289,-0.17076z" fill="#d9e2f9" stroke="none" stroke-width="1" stroke-linecap="butt"/><path d="M213.20833,123.05049v-10.03561c0,0 53.33252,0.05544 63.41667,0.05544c2.38185,0 5.16667,3.34375 5.16667,4.73738c0,1.8308 0,5.24278 0,5.24278z" fill="#d9e2f9" stroke="none" stroke-width="0" stroke-linecap="butt"/><path d="M275.19759,120.55655h3.15254c1.01144,0 1.61568,-0.00001 2.00975,0.17076c0.5911,0.21017 1.05084,0.66992 1.26101,1.24788c0.17077,0.4072 0.17077,1.01145 0.17077,2.02289v3.15254c0,1.01144 0,1.61568 -0.17077,2.02288c-0.21017,0.57796 -0.66992,1.03771 -1.26101,1.24788c-0.39407,0.17077 -0.99831,0.17077 -2.00975,0.17077h-3.15254c-1.01144,0 -1.61568,0 -2.02289,-0.17077c-0.57797,-0.21017 -1.03771,-0.66992 -1.24788,-1.24788c-0.17077,-0.40721 -0.17076,-1.01144 -0.17076,-2.02288v-3.15254c0,-1.01144 0,-1.61568 0.17076,-2.02289c0.21017,-0.57796 0.66992,-1.03771 1.24788,-1.24788c0.4072,-0.17077 1.01145,-0.17076 2.02289,-0.17076z" fill="#f9f9ff" stroke="none" stroke-width="1" stroke-linecap="butt"/><path d="M198.20833,135.63988v-15.08333c0,0 68.33252,0.08333 78.41667,0.08333c2.38185,0 5.16667,3.35562 5.16667,5.45022c0,2.75167 0,9.54978 0,9.54978z" fill="#f9f9ff" stroke="none" stroke-width="0" stroke-linecap="butt"/><path d="M225.93093,128.05655h51.75255c1.01144,0 1.61568,0 2.00975,0.17076c0.5911,0.21017 1.05085,0.66992 1.26102,1.24788c0.17077,0.40721 0.17076,1.01145 0.17076,2.02289v33.25411c0,1.01144 0,1.61567 -0.17076,2.02288c-0.21017,0.57797 -0.66992,1.03771 -1.26102,1.24788c-0.39407,0.17077 -0.99831,0.17077 -2.00975,0.17077h-51.75254c-1.01144,0 -1.61568,0 -2.02288,-0.17077c-0.57797,-0.21017 -1.03771,-0.66992 -1.24788,-1.24788c-0.17077,-0.40721 -0.17077,-1.01144 -0.17077,-2.02288v-33.25411c0,-1.01144 0,-1.61568 0.17077,-2.02289c0.21017,-0.57796 0.66992,-1.03771 1.24788,-1.24788c0.4072,-0.17076 1.01144,-0.17076 2.02288,-0.17076z" fill="#fdfbff" stroke="#bebebe" stroke-width="0.15" stroke-linecap="butt"/><path d="M206.12093,124.91557c0,0.93888 -0.73873,1.7 -1.65,1.7c-0.91127,0 -1.65,-0.76111 -1.65,-1.7c0,-0.93888 0.73873,-1.7 1.65,-1.7c0.91127,0 1.65,0.76112 1.65,1.7z" fill-opacity="0.67992" fill="#bbc2d1" stroke="#999ea9" stroke-width="0.5" stroke-linecap="butt"/><path d="M213.0376,124.75049c0,0.93888 -0.73873,1.7 -1.65,1.7c-0.91127,0 -1.65,-0.76111 -1.65,-1.7c0,-0.93888 0.73873,-1.7 1.65,-1.7c0.91127,0 1.65,0.76112 1.65,1.7z" fill-opacity="0.67992" fill="#bbc2d1" stroke="#999ea9" stroke-width="0.5" stroke-linecap="butt"/><path d="M219.87093,124.75049c0,0.93888 -0.73873,1.7 -1.65,1.7c-0.91127,0 -1.65,-0.76111 -1.65,-1.7c0,-0.93888 0.73873,-1.7 1.65,-1.7c0.91127,0 1.65,0.76112 1.65,1.7z" fill-opacity="0.67992" fill="#bbc2d1" stroke="#999ea9" stroke-width="0.5" stroke-linecap="butt"/><path d="M227.20427,124.75049c0,0.93888 -0.73873,1.7 -1.65,1.7c-0.91127,0 -1.65,-0.76111 -1.65,-1.7c0,-0.93888 0.73873,-1.7 1.65,-1.7c0.91127,0 1.65,0.76112 1.65,1.7z" fill-opacity="0.67992" fill="#bbc2d1" stroke="#999ea9" stroke-width="0.5" stroke-linecap="butt"/><path d="M234.20427,124.75049c0,0.93888 -0.73873,1.7 -1.65,1.7c-0.91127,0 -1.65,-0.76111 -1.65,-1.7c0,-0.93888 0.73873,-1.7 1.65,-1.7c0.91127,0 1.65,0.76112 1.65,1.7z" fill-opacity="0.67992" fill="#bbc2d1" stroke="#999ea9" stroke-width="0.5" stroke-linecap="butt"/><path d="M241.45427,124.75049c0,0.93888 -0.73873,1.7 -1.65,1.7c-0.91127,0 -1.65,-0.76111 -1.65,-1.7c0,-0.93888 0.73873,-1.7 1.65,-1.7c0.91127,0 1.65,0.76112 1.65,1.7z" fill-opacity="0.67992" fill="#bbc2d1" stroke="#999ea9" stroke-width="0.5" stroke-linecap="butt"/><path d="M248.45427,124.75049c0,0.93888 -0.73873,1.7 -1.65,1.7c-0.91127,0 -1.65,-0.76111 -1.65,-1.7c0,-0.93888 0.73873,-1.7 1.65,-1.7c0.91127,0 1.65,0.76112 1.65,1.7z" fill-opacity="0.67992" fill="#bbc2d1" stroke="#999ea9" stroke-width="0.5" stroke-linecap="butt"/><path d="M252.35778,123.05049l-0.00001,3.25" fill="none" stroke="#e7eefe" stroke-width="0.5" stroke-linecap="round"/><path d="M258.5376,124.75049c0,0.93888 -0.73873,1.7 -1.65,1.7c-0.91127,0 -1.65,-0.76111 -1.65,-1.7c0,-0.93888 0.73873,-1.7 1.65,-1.7c0.91127,0 1.65,0.76112 1.65,1.7z" fill-opacity="0.67992" fill="#bbc2d1" stroke="#999ea9" stroke-width="0.5" stroke-linecap="butt"/><path d="M265.7876,124.75049c0,0.93888 -0.73873,1.7 -1.65,1.7c-0.91127,0 -1.65,-0.76111 -1.65,-1.7c0,-0.93888 0.73873,-1.7 1.65,-1.7c0.91127,0 1.65,0.76112 1.65,1.7z" fill-opacity="0.67992" fill="#bbc2d1" stroke="#999ea9" stroke-width="0.5" stroke-linecap="butt"/><path d="M272.7876,124.75049c0,0.93888 -0.73873,1.7 -1.65,1.7c-0.91127,0 -1.65,-0.76111 -1.65,-1.7c0,-0.93888 0.73873,-1.7 1.65,-1.7c0.91127,0 1.65,0.76112 1.65,1.7z" fill-opacity="0.67992" fill="#bbc2d1" stroke="#999ea9" stroke-width="0.5" stroke-linecap="butt"/><text transform="translate(277.83661,126.51836) rotate(-89.71364) scale(0.10004,0.10004)" font-size="40" xml:space="preserve" fill="#444b59" fill-rule="nonzero" stroke="none" stroke-width="1" stroke-linecap="butt" stroke-linejoin="miter" stroke-miterlimit="10" stroke-dasharray="" stroke-dashoffset="0" font-family="Sans Serif" font-weight="normal" text-anchor="start" style="mix-blend-mode: normal"><tspan x="0" dy="0">...</tspan></text><path d="M230.0376,132.83382c0,0.93888 -0.73873,1.7 -1.65,1.7c-0.91127,0 -1.65,-0.76112 -1.65,-1.7c0,-0.93888 0.73873,-1.7 1.65,-1.7c0.91127,0 1.65,0.76112 1.65,1.7z" fill-opacity="0.67992" fill="#bbc2d1" stroke="#999ea9" stroke-width="0.5" stroke-linecap="butt"/><path d="M246.22093,132.97053l-12.83333,-0.06287" fill="none" stroke="#a6a6ab" stroke-width="1.5" stroke-linecap="round"/><path d="M230.0376,137.83382c0,0.93888 -0.73873,1.7 -1.65,1.7c-0.91127,0 -1.65,-0.76111 -1.65,-1.7c0,-0.93888 0.73873,-1.7 1.65,-1.7c0.91127,0 1.65,0.76112 1.65,1.7z" fill-opacity="0.67992" fill="#bbc2d1" stroke="#999ea9" stroke-width="0.5" stroke-linecap="butt"/><path d="M246.22093,137.97052l-12.83333,-0.06286" fill="none" stroke="#a6a6ab" stroke-width="1.5" stroke-linecap="round"/><path d="M230.0376,142.83382c0,0.93888 -0.73873,1.7 -1.65,1.7c-0.91127,0 -1.65,-0.76111 -1.65,-1.7c0,-0.93888 0.73873,-1.7 1.65,-1.7c0.91127,0 1.65,0.76112 1.65,1.7z" fill-opacity="0.67992" fill="#bbc2d1" stroke="#999ea9" stroke-width="0.5" stroke-linecap="butt"/><path d="M246.22093,142.97053l-12.83333,-0.06287" fill="none" stroke="#a6a6ab" stroke-width="1.5" stroke-linecap="round"/><path d="M230.0376,147.83382c0,0.93888 -0.73873,1.7 -1.65,1.7c-0.91127,0 -1.65,-0.76112 -1.65,-1.7c0,-0.93888 0.73873,-1.7 1.65,-1.7c0.91127,0 1.65,0.76112 1.65,1.7z" fill-opacity="0.67992" fill="#bbc2d1" stroke="#999ea9" stroke-width="0.5" stroke-linecap="butt"/><path d="M246.22093,147.97053l-12.83333,-0.06287" fill="none" stroke="#a6a6ab" stroke-width="1.5" stroke-linecap="round"/><path d="M230.0376,152.83382c0,0.93888 -0.73873,1.7 -1.65,1.7c-0.91127,0 -1.65,-0.76112 -1.65,-1.7c0,-0.93888 0.73873,-1.7 1.65,-1.7c0.91127,0 1.65,0.76111 1.65,1.7z" fill-opacity="0.67992" fill="#bbc2d1" stroke="#999ea9" stroke-width="0.5" stroke-linecap="butt"/><path d="M233.3876,152.90766l12.83333,0.06287" fill="none" stroke="#a6a6ab" stroke-width="1.5" stroke-linecap="round"/><path d="M230.0376,157.83382c0,0.93888 -0.73873,1.7 -1.65,1.7c-0.91127,0 -1.65,-0.76112 -1.65,-1.7c0,-0.93888 0.73873,-1.7 1.65,-1.7c0.91127,0 1.65,0.76111 1.65,1.7z" fill-opacity="0.67992" fill="#bbc2d1" stroke="#999ea9" stroke-width="0.5" stroke-linecap="butt"/><path d="M246.22093,157.97053l-12.83333,-0.06287" fill="none" stroke="#a6a6ab" stroke-width="1.5" stroke-linecap="round"/><path d="M230.0376,162.83382c0,0.93888 -0.73873,1.7 -1.65,1.7c-0.91127,0 -1.65,-0.76112 -1.65,-1.7c0,-0.93888 0.73873,-1.7 1.65,-1.7c0.91127,0 1.65,0.76111 1.65,1.7z" fill="none" stroke="#45474d" stroke-width="0.5" stroke-linecap="butt"/><text transform="translate(232.9376,163.63874) scale(0.05792,0.05792)" font-size="40" xml:space="preserve" fill="#272627" fill-rule="nonzero" stroke="none" stroke-width="1" stroke-linecap="butt" stroke-linejoin="miter" stroke-miterlimit="10" stroke-dasharray="" stroke-dashoffset="0" font-family="Sans Serif" font-weight="normal" text-anchor="start" style="mix-blend-mode: normal"><tspan x="0" dy="0">设定</tspan></text><path d="M229.2126,162.83382c0,0.46944 -0.36937,0.85 -0.825,0.85c-0.45564,0 -0.825,-0.38056 -0.825,-0.85c0,-0.46944 0.36937,-0.85 0.825,-0.85c0.45563,0 0.825,0.38056 0.825,0.85z" fill="none" stroke="#45474d" stroke-width="0.5" stroke-linecap="butt"/><path d="M278.05984,114.3482c0.75784,0 1.22211,0 1.52935,0.12972c0.44378,0.15703 0.79198,0.51205 0.95584,0.95584c0.1229,0.30041 0.1229,0.7715 0.1229,1.52252c0,0.75102 0,1.22212 -0.1229,1.52252c-0.16386,0.44378 -0.51206,0.79882 -0.95584,0.95585c-0.30723,0.12972 -0.7715,0.12972 -1.52935,0.12972c-0.75102,0 -1.22211,0 -1.52252,-0.12972c-0.44378,-0.15703 -0.79198,-0.51206 -0.95584,-0.95585c-0.1229,-0.3004 -0.12972,-0.7715 -0.12972,-1.52252c0,-0.75102 0.00682,-1.22211 0.12972,-1.52252c0.16386,-0.44378 0.51206,-0.79881 0.95584,-0.95584c0.30041,-0.12972 0.7715,-0.12972 1.52252,-0.12972z" fill="#ecf0ff" stroke="none" stroke-width="1" stroke-linecap="butt"/><path d="M194.63309,220.46618c2.67272,0 4.26941,0 5.34544,0.45124c1.52727,0.55537 2.74214,1.77024 3.29751,3.29751c0.45124,1.07603 0.45124,2.67272 0.45124,5.34544v8.33056c0,2.67271 0,4.26941 -0.45124,5.34544c-0.55537,1.52727 -1.77024,2.74214 -3.29751,3.29751c-1.07603,0.45124 -2.67272,0.45124 -5.34544,0.45124h-8.33056c-2.67272,0 -4.26941,0 -5.31073,-0.45124c-1.56198,-0.55537 -2.77686,-1.77024 -3.33223,-3.29751c-0.45124,-1.07603 -0.45124,-2.67272 -0.45124,-5.34544v-8.33056c0,-2.67272 0,-4.26941 0.45124,-5.34544c0.55537,-1.52728 1.77025,-2.74215 3.33223,-3.29752c1.04132,-0.45124 2.63801,-0.45124 5.31073,-0.45124h8.33056z" fill="#ffffff" stroke="none" stroke-width="1" stroke-linecap="butt"/><path d="M299.04291,185.46864c1.52727,0.55537 2.74215,1.77024 3.29752,3.29751c0.45124,1.07603 0.45123,2.67272 0.45123,5.34544v8.33056c0,2.67271 0.00001,4.26941 -0.45123,5.34544c-0.55538,1.52726 -1.77025,2.74214 -3.29752,3.29751c-1.07603,0.45123 -2.67272,0.45123 -5.34544,0.45123h-8.33056c-2.67272,0 -4.26941,0.00001 -5.31073,-0.45123c-1.56198,-0.55537 -2.77685,-1.77024 -3.33222,-3.29751c-0.45124,-1.07603 -0.45124,-2.67272 -0.45124,-5.34544v-8.33056c0,-2.67272 0,-4.26941 0.45124,-5.34544c0.55537,-1.52727 1.77024,-2.74214 3.33222,-3.29751c1.04132,-0.45124 2.63801,-0.45124 5.31073,-0.45124h8.33056c2.67272,0 4.26941,0 5.34544,0.45124z" fill="#d9e2f9" stroke="none" stroke-width="1" stroke-linecap="butt"/><path d="M290.81895,246.98511c-9.48508,0 -81.54388,0 -99.5625,0c-8.30206,0 -14.04811,-7.68628 -14.04811,-13.35708c0,-9.94395 0,-41.07149 0,-41.07149h125.58334c0,0 0,28.96437 0,39.0033c0,6.31326 -6.30741,15.42527 -11.97273,15.42527z" fill="#ffffff" stroke="none" stroke-width="0" stroke-linecap="butt"/><path d="M185.82529,185.18563c0.57796,0.21017 1.03771,0.66993 1.24788,1.24789c0.17076,0.4072 0.17076,1.01144 0.17076,2.02288v3.15255c0,1.01144 0.00001,1.61568 -0.17076,2.02288c-0.21017,0.57796 -0.66991,1.03771 -1.24788,1.24788c-0.40721,0.17077 -1.01145,0.17077 -2.02289,0.17077h-3.15254c-1.01144,0 -1.61568,0 -2.00975,-0.17077c-0.59109,-0.21017 -1.05084,-0.66992 -1.26101,-1.24788c-0.17077,-0.4072 -0.17077,-1.01144 -0.17077,-2.02288v-3.15255c0,-1.01144 0,-1.61568 0.17077,-2.02288c0.21017,-0.57797 0.66991,-1.03772 1.26101,-1.24789c0.39407,-0.17077 0.99831,-0.17076 2.00975,-0.17076h3.15254c1.01144,0 1.61569,-0.00001 2.02289,0.17076z" fill="#d9e2f9" stroke="none" stroke-width="1" stroke-linecap="butt"/><path d="M177.20832,195.05047c0,0 0,-3.41198 0,-5.24278c0,-1.39363 2.78482,-4.73738 5.16667,-4.73738c10.08415,0 105.41667,-0.05544 105.41667,-0.05544v10.03561z" fill="#d9e2f9" stroke="none" stroke-width="0" stroke-linecap="butt"/><path d="M185.8253,192.7273c0.57796,0.21017 1.03771,0.66992 1.24788,1.24788c0.17076,0.40721 0.17076,1.01145 0.17076,2.02289v3.15254c0,1.01144 0.00001,1.61567 -0.17076,2.02288c-0.21017,0.57796 -0.66991,1.03771 -1.24788,1.24788c-0.40721,0.17077 -1.01145,0.17077 -2.02289,0.17077h-3.15254c-1.01144,0 -1.61568,0 -2.00975,-0.17077c-0.59109,-0.21017 -1.05084,-0.66992 -1.26101,-1.24788c-0.17077,-0.4072 -0.17077,-1.01144 -0.17077,-2.02288v-3.15254c0,-1.01144 0,-1.61569 0.17077,-2.02289c0.21017,-0.57796 0.66991,-1.03771 1.26101,-1.24788c0.39407,-0.17077 0.99831,-0.17076 2.00975,-0.17076h3.15254c1.01144,0 1.61569,-0.00001 2.02289,0.17076z" fill="#f9f9ff" stroke="none" stroke-width="1" stroke-linecap="butt"/><path d="M177.20834,207.63987c0,0 0,-6.79811 0,-9.54978c0,-2.0946 2.78482,-5.45022 5.16667,-5.45022c10.08415,0 120.41667,-0.08333 120.41667,-0.08333v15.08333z" fill="#f9f9ff" stroke="none" stroke-width="0" stroke-linecap="butt"/><path d="M181.56604,197.82208l-1.16667,-1.16667l1.16667,-1.08333" fill="none" stroke="#b1b5be" stroke-width="0.5" stroke-linecap="round"/><path d="M187.31604,195.57208l1.16667,1.08333l-1.16666,1.16667" data-paper-data="{&quot;index&quot;:null}" fill="none" stroke="#b1b5be" stroke-width="0.5" stroke-linecap="round"/><path d="M195.89937,196.57208c0,0.64433 -0.48502,1.16667 -1.08333,1.16667c-0.59831,0 -1.08333,-0.52233 -1.08333,-1.16667c0,-0.64433 0.48502,-1.16667 1.08333,-1.16667c0.59831,0 1.08333,0.52233 1.08333,1.16667z" fill="none" stroke="#b1b5be" stroke-width="0.5" stroke-linecap="butt"/><path d="M181.89938,188.4294c0,0.69035 -0.55965,1.25 -1.25,1.25c-0.69035,0 -1.25,-0.55965 -1.25,-1.25c0,-0.69035 0.55965,-1.25 1.25,-1.25c0.69035,0 1.25,0.55965 1.25,1.25z" fill="#ff5e57" stroke-opacity="0.49187" stroke="#d9e2f9" stroke-width="0.5" stroke-linecap="butt"/><path d="M185.48271,188.4294c0,0.69035 -0.55964,1.25 -1.25,1.25c-0.69036,0 -1.25,-0.55965 -1.25,-1.25c0,-0.69035 0.55964,-1.25 1.25,-1.25c0.69036,0 1.25,0.55965 1.25,1.25z" fill="#ffc857" stroke-opacity="0.49187" stroke="#d9e2f9" stroke-width="0.5" stroke-linecap="butt"/><path d="M189.31605,188.4294c0,0.69035 -0.55964,1.25 -1.25,1.25c-0.69036,0 -1.25,-0.55965 -1.25,-1.25c0,-0.69035 0.55964,-1.25 1.25,-1.25c0.69036,0 1.25,0.55965 1.25,1.25z" fill="#5faf7a" stroke-opacity="0.49187" stroke="#d9e2f9" stroke-width="0.5" stroke-linecap="butt"/><text transform="translate(182.22614,215.92718) scale(0.13267,0.13267)" font-size="40" xml:space="preserve" fill="#000000" fill-rule="nonzero" stroke="none" stroke-width="1" stroke-linecap="butt" stroke-linejoin="miter" stroke-miterlimit="10" stroke-dasharray="" stroke-dashoffset="0" font-family="Sans Serif" font-weight="normal" text-anchor="start" style="mix-blend-mode: normal"><tspan x="0" dy="0">設定</tspan></text><path d="M187.28285,227.38016c0,1.08156 -0.87678,1.95833 -1.95833,1.95833c-1.08156,0 -1.95833,-0.87678 -1.95833,-1.95833c0,-1.08156 0.87678,-1.95833 1.95833,-1.95833c1.08156,0 1.95833,0.87678 1.95833,1.95833z" fill-opacity="0.49443" fill="#c9cacc" stroke="#c9cacc" stroke-width="1" stroke-linecap="butt"/><path d="M192.31604,227.08849h14.75" fill="none" stroke="#c9cacc" stroke-width="2" stroke-linecap="round"/><path d="M177.20832,232.36436h29.33596c1.01462,0 1.79051,0 2.44703,0.02984c0.62668,0.05968 1.13399,0.11937 1.52194,0.23873c1.2832,0.47747 2.26798,1.46225 2.74545,2.74545c0.17905,0.50731 0.26857,1.01462 0.26857,1.55178c0,0.53715 -0.08952,1.07431 -0.26857,1.55178c-0.47747,1.2832 -1.46225,2.26798 -2.74545,2.74545c-0.38794,0.11937 -0.89526,0.20889 -1.52194,0.23873c-0.65652,0.02984 -1.43241,0.02984 -2.44703,0.02984h-29.33596z" fill="#e7f0fe" stroke="none" stroke-width="1" stroke-linecap="butt"/><path d="M187.28285,237.13016c0,1.08156 -0.87678,1.95833 -1.95833,1.95833c-1.08156,0 -1.95833,-0.87677 -1.95833,-1.95833c0,-1.08156 0.87677,-1.95833 1.95833,-1.95833c1.08156,0 1.95834,0.87677 1.95834,1.95833z" fill="none" stroke="#1b73e8" stroke-width="1" stroke-linecap="butt"/><path d="M293.69749,220.46617c2.67272,0 4.26941,0 5.34544,0.45124c1.52727,0.55537 2.74214,1.77024 3.29751,3.29751c0.45124,1.07603 0.45124,2.67272 0.45124,5.34544v8.33056c0,2.67271 0,4.26941 -0.45124,5.34544c-0.55537,1.52727 -1.77024,2.74214 -3.29751,3.29751c-1.07603,0.45124 -2.67272,0.45124 -5.34544,0.45124h-8.33056c-2.67272,0 -4.26941,0 -5.31073,-0.45124c-1.56198,-0.55537 -2.77686,-1.77024 -3.33223,-3.29751c-0.45124,-1.07603 -0.45124,-2.67272 -0.45124,-5.34544v-8.33056c0,-2.67272 0,-4.26941 0.45124,-5.34544c0.55537,-1.52728 1.77025,-2.74215 3.33223,-3.29752c1.04132,-0.45124 2.63801,-0.45124 5.31073,-0.45124h8.33056z" fill="#f6f7fa" stroke="none" stroke-width="1" stroke-linecap="butt"/><path d="M223.59043,246.98511v-15.08333h64.20123v15.08333z" fill="#f6f7fa" stroke="none" stroke-width="0" stroke-linecap="butt"/><path d="M233.5012,220.46617c1.52018,0 2.42834,0 3.04036,0.25665c0.86867,0.31588 1.55966,1.00687 1.87554,1.87554c0.25665,0.61202 0.25665,1.52018 0.25665,3.04036v4.73822c0,1.52017 0,2.42834 -0.25665,3.04036c-0.31588,0.86867 -1.00687,1.55966 -1.87554,1.87554c-0.61202,0.25665 -1.52018,0.25665 -3.04036,0.25665h-4.73822c-1.52018,0 -2.42834,0 -3.02061,-0.25665c-0.88842,-0.31588 -1.57941,-1.00687 -1.89529,-1.87554c-0.25665,-0.61202 -0.25665,-1.52018 -0.25665,-3.04036v-4.73822c0,-1.52018 0,-2.42834 0.25665,-3.04036c0.31588,-0.86868 1.00687,-1.55967 1.89529,-1.87555c0.59228,-0.25665 1.50044,-0.25665 3.02061,-0.25665h4.73822z" fill="#f6f7fa" stroke="none" stroke-width="1" stroke-linecap="butt"/><path d="M231.13209,235.54949v-15.08333h71.65957v15.08333z" fill="#f6f7fa" stroke="none" stroke-width="0" stroke-linecap="butt"/><text transform="translate(191.75874,237.99473) scale(0.08487,0.08487)" font-size="40" xml:space="preserve" fill="#1b73e8" fill-rule="nonzero" stroke="none" stroke-width="1" stroke-linecap="butt" stroke-linejoin="miter" stroke-miterlimit="10" stroke-dasharray="" stroke-dashoffset="0" font-family="Sans Serif" font-weight="normal" text-anchor="start" style="mix-blend-mode: normal"><tspan x="0" dy="0">デザイン</tspan></text><text transform="translate(229.67823,237.55488) scale(0.10836,0.10836)" font-size="40" xml:space="preserve" fill="#424242" fill-rule="nonzero" stroke="none" stroke-width="1" stroke-linecap="butt" stroke-linejoin="miter" stroke-miterlimit="10" stroke-dasharray="" stroke-dashoffset="0" font-family="Sans Serif" font-weight="normal" text-anchor="start" style="mix-blend-mode: normal"><tspan x="0" dy="0">フックマーク バーを表示する</tspan></text><path d="M292.83314,236.30466h3.91666" fill="none" stroke="#0957d0" stroke-width="5" stroke-linecap="round"/><path d="M296.7498,236.30466v0" fill="none" stroke="#ffffff" stroke-width="3.5" stroke-linecap="round"/><path d="M231.40482,227.93748h36.31895" fill="none" stroke="#c9cacc" stroke-width="3" stroke-linecap="round"/><g stroke-linecap="round"><path d="M230.32952,171.49732v-7.02444l5.21617,5.42482l-2.43421,0.06955l1.39098,3.19925l-0.97369,0.48684l-1.46053,-3.2688z" fill="none" stroke-opacity="0.18803" stroke="#000000" stroke-width="1"/><path d="M230.32952,171.35822v-7.02444l5.21617,5.42482l-2.43421,0.06955l1.39098,3.19925l-0.97368,0.48684l-1.46053,-3.2688z" fill="#000000" stroke="#ffffff" stroke-width="0.5"/></g><g stroke-linecap="round"><path d="M294.14172,243.4682v-7.02444l5.21617,5.42481l-2.43422,0.06955l1.39098,3.19925l-0.97368,0.48684l-1.46053,-3.2688z" fill="none" stroke-opacity="0.18803" stroke="#000000" stroke-width="1"/><path d="M294.14172,243.3291v-7.02444l5.21617,5.42481l-2.43422,0.06955l1.39098,3.19925l-0.97368,0.48685l-1.46053,-3.2688z" fill="#000000" stroke="#ffffff" stroke-width="0.5"/></g></g></g></svg>