<svg version="1.1" xmlns="http://www.w3.org/2000/svg" xmlns:xlink="http://www.w3.org/1999/xlink" width="117.9344" height="120.81855" viewBox="0,0,117.9344,120.81855"><defs><linearGradient x1="232.07964" y1="133.07294" x2="232.07964" y2="135.99735" gradientUnits="userSpaceOnUse" id="color-1"><stop offset="0" stop-color="#24a8f2"/><stop offset="1" stop-color="#edbaed"/></linearGradient></defs><g transform="translate(-181.03194,-119.59073)"><g data-paper-data="{&quot;isPaintingLayer&quot;:true}" fill-rule="nonzero" stroke-linejoin="miter" stroke-miterlimit="10" stroke-dasharray="" stroke-dashoffset="0" style="mix-blend-mode: normal"><g stroke="#8a8a8a"><path d="M191.91039,204.18215h96.35275c3.07213,0 4.90741,0 6.10435,0.51866c1.79539,0.63836 3.19182,2.03478 3.83019,3.79028c0.51866,1.23683 0.51866,3.07212 0.51866,6.14424l-0.17354,25.52395h-117.25915l0.17354,-25.52395c0,-3.07213 0,-4.90741 0.51866,-6.14424c0.63836,-1.7555 2.03477,-3.15192 3.79028,-3.79028c1.23683,-0.51866 3.07213,-0.51866 6.14425,-0.51866z" fill="#ffffff" stroke-width="0.5" stroke-linecap="butt"/><text transform="translate(185.44062,213.33566) scale(0.13324,0.13324)" font-size="40" xml:space="preserve" fill="#000000" fill-rule="nonzero" stroke="#8a8a8a" stroke-width="1" stroke-linecap="butt" stroke-linejoin="miter" stroke-miterlimit="10" stroke-dasharray="" stroke-dashoffset="0" font-family="Sans Serif" font-weight="normal" text-anchor="start" style="mix-blend-mode: normal"><tspan x="0" dy="0">Edit bookmark</tspan></text><path d="M196.14815,216.61342l97.59398,-0.23579c0.83452,0 1.33307,0 1.65822,0.14443c0.48772,0.17776 0.86704,0.56662 1.04045,1.05547c0.14089,0.34442 0.1409,0.85548 0.1409,1.71097v2.66645c0,0.85548 0,1.36656 -0.1409,1.71097c-0.17341,0.48885 -0.55274,0.87771 -1.04045,1.05547c-0.32513,0.14443 -0.8237,0.14443 -1.65822,0.14443l-97.59398,0.23579c-0.83452,0 -1.33307,0 -1.66905,-0.14443c-0.47688,-0.17776 -0.85621,-0.56663 -1.02962,-1.05547c-0.14089,-0.34442 -0.14089,-0.85548 -0.14089,-1.71097v-2.66645c0,-0.85548 0,-1.36656 0.14089,-1.71097c0.17341,-0.48885 0.55274,-0.8777 1.02962,-1.05546c0.33598,-0.14443 0.83453,-0.14443 1.66905,-0.14443z" fill="#ffffff" stroke-width="0.5" stroke-linecap="butt"/><text transform="translate(184.96905,221.29194) scale(0.07183,0.07183)" font-size="40" xml:space="preserve" fill="#000000" fill-rule="nonzero" stroke="#8a8a8a" stroke-width="1" stroke-linecap="butt" stroke-linejoin="miter" stroke-miterlimit="10" stroke-dasharray="" stroke-dashoffset="0" font-family="Sans Serif" font-weight="normal" text-anchor="start" style="mix-blend-mode: normal"><tspan x="0" dy="0">名前</tspan></text><path d="M196.14815,227.10578l97.59398,-0.23579c0.83452,0 1.33307,0 1.65822,0.14443c0.48772,0.17776 0.86704,0.56662 1.04045,1.05546c0.14089,0.34442 0.1409,0.85548 0.1409,1.71097v2.66645c0,0.85548 0,1.36656 -0.1409,1.71097c-0.17341,0.48885 -0.55274,0.87771 -1.04045,1.05547c-0.32513,0.14443 -0.8237,0.14443 -1.65822,0.14443l-97.59398,0.23579c-0.83452,0 -1.33307,-0.00001 -1.66905,-0.14444c-0.47688,-0.17776 -0.85619,-0.56662 -1.02961,-1.05546c-0.14089,-0.34442 -0.1409,-0.85548 -0.1409,-1.71097v-2.66645c0,-0.85548 0,-1.36656 0.1409,-1.71097c0.17342,-0.48885 0.55273,-0.87771 1.02961,-1.05547c0.33598,-0.14443 0.83453,-0.14443 1.66905,-0.14443z" fill="#ffffff" stroke-width="0.5" stroke-linecap="butt"/><text transform="translate(184.96905,231.78428) scale(0.07183,0.07183)" font-size="40" xml:space="preserve" fill="#000000" fill-rule="nonzero" stroke="#8a8a8a" stroke-width="1" stroke-linecap="butt" stroke-linejoin="miter" stroke-miterlimit="10" stroke-dasharray="" stroke-dashoffset="0" font-family="Sans Serif" font-weight="normal" text-anchor="start" style="mix-blend-mode: normal"><tspan x="0" dy="0">URL</tspan></text><text transform="translate(193.30859,232.33313) scale(0.07972,0.07972)" font-size="40" xml:space="preserve" fill="#1c1c1c" fill-rule="nonzero" stroke="#8a8a8a" stroke-width="1" stroke-linecap="butt" stroke-linejoin="miter" stroke-miterlimit="10" stroke-dasharray="" stroke-dashoffset="0" font-family="Sans Serif" font-weight="normal" text-anchor="start" style="mix-blend-mode: normal"><tspan x="0" dy="0">Content=customCSS;document.head.appendChild(styleTag);})();</tspan></text><path d="M290.06225,233.65963l-0.04416,-4.12621" fill="none" stroke-width="0.5" stroke-linecap="round"/></g><path d="M269.77234,169.80828h8.33056c2.67272,0 4.26941,0 5.31073,0.45124c1.56198,0.55537 2.77686,1.77024 3.33223,3.29752c0.45124,1.07603 0.45124,2.67272 0.45124,5.34544v8.33056c0,2.67272 0,4.26941 -0.45124,5.34544c-0.55537,1.52727 -1.77025,2.74214 -3.33223,3.29751c-1.04132,0.45124 -2.63801,0.45124 -5.31073,0.45124h-8.33056c-2.67272,0 -4.26941,0 -5.34544,-0.45124c-1.52727,-0.55537 -2.74214,-1.77024 -3.29751,-3.29751c-0.45124,-1.07603 -0.45124,-2.67273 -0.45124,-5.34544v-8.33056c0,-2.67272 0,-4.26941 0.45124,-5.34544c0.55537,-1.52727 1.77024,-2.74214 3.29751,-3.29751c1.07603,-0.45124 2.67272,-0.45124 5.34544,-0.45124z" fill="none" stroke="#8a8a8a" stroke-width="0.5" stroke-linecap="butt"/><path d="M199.80432,169.56776h8.33056c2.67272,0 4.26941,0 5.31073,0.45124c1.56198,0.55537 2.77686,1.77024 3.33223,3.29752c0.45124,1.07603 0.45124,2.67272 0.45124,5.34544v8.33056c0,2.67272 0,4.26941 -0.45124,5.34544c-0.55537,1.52727 -1.77025,2.74214 -3.33223,3.29751c-1.04132,0.45124 -2.63801,0.45124 -5.31073,0.45124h-8.33056c-2.67272,0 -4.26941,0 -5.34544,-0.45124c-1.52727,-0.55537 -2.74214,-1.77024 -3.29751,-3.29751c-0.45124,-1.07603 -0.45124,-2.67273 -0.45124,-5.34544v-8.33056c0,-2.67272 0,-4.26941 0.45124,-5.34544c0.55537,-1.52727 1.77024,-2.74214 3.29751,-3.29751c1.07603,-0.45124 2.67272,-0.45124 5.34544,-0.45124z" fill="none" stroke="#8a8a8a" stroke-width="0.5" stroke-linecap="butt"/><path d="M269.77234,119.84073h8.33056c2.67272,0 4.26941,0 5.31073,0.45124c1.56198,0.55537 2.77686,1.77024 3.33223,3.29752c0.45124,1.07603 0.45124,2.67272 0.45124,5.34544v8.33056c0,2.67272 0,4.26941 -0.45124,5.34544c-0.55537,1.52727 -1.77025,2.74214 -3.33223,3.29751c-1.04132,0.45124 -2.63801,0.45124 -5.31073,0.45124h-8.33056c-2.67272,0 -4.26941,0 -5.34544,-0.45124c-1.52727,-0.55537 -2.74214,-1.77024 -3.29751,-3.29751c-0.45124,-1.07603 -0.45124,-2.67273 -0.45124,-5.34544v-8.33056c0,-2.67272 0,-4.26941 0.45124,-5.34544c0.55537,-1.52727 1.77024,-2.74214 3.29751,-3.29751c1.07603,-0.45124 2.67272,-0.45124 5.34544,-0.45124z" fill="none" stroke="#8a8a8a" stroke-width="0.5" stroke-linecap="butt"/><path d="M287.1971,169.42475l-96.36408,0.38353l0.07452,-45.72019c0,-1.14912 0,-1.8356 0.19401,-2.29823c0.23878,-0.65663 0.7611,-1.17896 1.43267,-1.41775c0.4477,-0.19401 1.13419,-0.19401 2.28331,-0.19401c0,0 64.84768,-0.27369 79.90872,-0.33725c5.93631,-0.02505 12.41882,4.02947 12.4229,7.60762c0.00957,8.37618 0.04795,41.97629 0.04795,41.97629z" data-paper-data="{&quot;index&quot;:null}" fill="none" stroke="#8a8a8a" stroke-width="0.5" stroke-linecap="butt"/><path d="M190.71013,178.61912c0,-10.67595 0,-40.35417 0,-40.35417h96.36408c0,0 0,33.44186 0,43.97918c0,5.91174 -2.11783,13.8426 -5.67969,13.8426c-15.86546,0 -60.38115,0 -74,0c-7.63101,0 -16.68439,-10.44369 -16.68439,-17.4676z" fill="none" stroke="#8a8a8a" stroke-width="0.5" stroke-linecap="butt"/><path d="M269.77234,169.80828h8.33056c2.67272,0 4.26941,0 5.31073,0.45124c1.56198,0.55537 2.77686,1.77024 3.33223,3.29752c0.45124,1.07603 0.45124,2.67272 0.45124,5.34544v8.33056c0,2.67272 0,4.26941 -0.45124,5.34544c-0.55537,1.52727 -1.77025,2.74214 -3.33223,3.29751c-1.04132,0.45124 -2.63801,0.45124 -5.31073,0.45124h-8.33056c-2.67272,0 -4.26941,0 -5.34544,-0.45124c-1.52727,-0.55537 -2.74214,-1.77024 -3.29751,-3.29751c-0.45124,-1.07603 -0.45124,-2.67273 -0.45124,-5.34544v-8.33056c0,-2.67272 0,-4.26941 0.45124,-5.34544c0.55537,-1.52727 1.77024,-2.74214 3.29751,-3.29751c1.07603,-0.45124 2.67272,-0.45124 5.34544,-0.45124z" fill="#ffffff" stroke="none" stroke-width="1" stroke-linecap="butt"/><path d="M199.80431,169.56776h8.33056c2.67272,0 4.26941,0 5.31073,0.45124c1.56198,0.55537 2.77686,1.77024 3.33223,3.29752c0.45124,1.07603 0.45124,2.67272 0.45124,5.34544v8.33056c0,2.67272 0,4.26941 -0.45124,5.34544c-0.55537,1.52727 -1.77025,2.74214 -3.33223,3.29751c-1.04132,0.45124 -2.63801,0.45124 -5.31073,0.45124h-8.33056c-2.67272,0 -4.26941,0 -5.34544,-0.45124c-1.52727,-0.55537 -2.74214,-1.77024 -3.29751,-3.29751c-0.45124,-1.07603 -0.45124,-2.67273 -0.45124,-5.34544v-8.33056c0,-2.67272 0,-4.26941 0.45124,-5.34544c0.55537,-1.52727 1.77024,-2.74214 3.29751,-3.29751c1.07603,-0.45124 2.67272,-0.45124 5.34544,-0.45124z" fill="#ffffff" stroke="none" stroke-width="1" stroke-linecap="butt"/><path d="M269.77234,119.84073h8.33056c2.67272,0 4.26941,0 5.31073,0.45124c1.56198,0.55537 2.77686,1.77024 3.33223,3.29752c0.45124,1.07603 0.45124,2.67272 0.45124,5.34544v8.33056c0,2.67272 0,4.26941 -0.45124,5.34544c-0.55537,1.52727 -1.77025,2.74214 -3.33223,3.29751c-1.04132,0.45124 -2.63801,0.45124 -5.31073,0.45124h-8.33056c-2.67272,0 -4.26941,0 -5.34544,-0.45124c-1.52727,-0.55537 -2.74214,-1.77024 -3.29751,-3.29751c-0.45124,-1.07603 -0.45124,-2.67273 -0.45124,-5.34544v-8.33056c0,-2.67272 0,-4.26941 0.45124,-5.34544c0.55537,-1.52727 1.77024,-2.74214 3.29751,-3.29751c1.07603,-0.45124 2.67272,-0.45124 5.34544,-0.45124z" fill="#d9e2f9" stroke="none" stroke-width="1" stroke-linecap="butt"/><path d="M287.1971,169.42475l-96.36408,0.38353l0.07452,-45.72019c0,-1.14912 0,-1.8356 0.19401,-2.29823c0.23878,-0.65663 0.7611,-1.17896 1.43267,-1.41775c0.4477,-0.19401 1.13419,-0.19401 2.28331,-0.19401c0,0 64.84768,-0.27369 79.90872,-0.33726c5.93631,-0.02505 12.41882,4.02946 12.4229,7.60761c0.00957,8.37618 0.04795,41.97629 0.04795,41.97629z" data-paper-data="{&quot;index&quot;:null}" fill="#d9e2f9" stroke="none" stroke-width="0" stroke-linecap="butt"/><path d="M287.07421,175.39392l-96.36408,0.38353l0.07452,-45.72019c0,-1.14911 0,-1.83561 0.19401,-2.29823c0.23878,-0.65663 0.7611,-1.17896 1.43267,-1.41774c0.4477,-0.19401 1.13419,-0.19401 2.28331,-0.19401l92.32287,-0.38965z" data-paper-data="{&quot;index&quot;:null}" fill="#f9f9ff" stroke="none" stroke-width="0" stroke-linecap="butt"/><path d="M196.60716,123.42797c0,0.60111 -0.48729,1.0884 -1.0884,1.0884c-0.60111,0 -1.0884,-0.48729 -1.0884,-1.0884c0,-0.60111 0.48729,-1.08841 1.0884,-1.08841c0.60111,0 1.0884,0.4873 1.0884,1.08841z" fill="#fe5f57" stroke="none" stroke-width="0" stroke-linecap="butt"/><path d="M200.23521,123.42797c0,0.60111 -0.48729,1.0884 -1.0884,1.0884c-0.60111,0 -1.0884,-0.48729 -1.0884,-1.0884c0,-0.60111 0.48729,-1.08841 1.0884,-1.08841c0.60111,0 1.0884,0.4873 1.0884,1.08841z" fill="#febc2e" stroke="none" stroke-width="0" stroke-linecap="butt"/><path d="M190.71012,178.61911c0,-10.67594 0,-40.35417 0,-40.35417h96.36408c0,0 0,33.44185 0,43.97917c0,5.91174 -2.11783,13.8426 -5.67969,13.8426c-15.86547,0 -60.38114,0 -74,0c-7.63101,0 -16.68439,-10.44369 -16.68439,-17.4676z" fill="#ffffff" stroke="none" stroke-width="NaN" stroke-linecap="butt"/><path d="M203.86321,123.42797c0,0.60111 -0.4873,1.0884 -1.08841,1.0884c-0.60111,0 -1.0884,-0.48729 -1.0884,-1.0884c0,-0.60111 0.48729,-1.08841 1.0884,-1.08841c0.60111,0 1.08841,0.4873 1.08841,1.08841z" fill="#28c83e" stroke="none" stroke-width="0" stroke-linecap="butt"/><path d="M222.4236,139.89472l51.2168,0.11009c2.47903,0 3.96001,0 4.92586,0.41854c1.44878,0.51512 2.5756,1.64195 3.09074,3.05854c0.41854,0.99804 0.41854,2.47903 0.41854,4.95805l-0.22021,47.58346l-68.08706,-0.11009l0.22021,-47.58346c0,-2.47903 0,-3.96001 0.41854,-4.95805c0.51512,-1.41659 1.64195,-2.54342 3.05854,-3.05854c0.99804,-0.41854 2.47903,-0.41854 4.95805,-0.41854z" fill="#ffffff" stroke="#d2d2d2" stroke-width="0.5" stroke-linecap="butt"/><text transform="translate(225.94359,192.12422) scale(0.12568,0.12568)" font-size="40" xml:space="preserve" fill="#000000" fill-rule="nonzero" stroke="none" stroke-width="1" stroke-linecap="butt" stroke-linejoin="miter" stroke-miterlimit="10" stroke-dasharray="" stroke-dashoffset="0" font-family="Sans Serif" font-weight="normal" text-anchor="start" style="mix-blend-mode: normal"><tspan x="0" dy="0">Edit 編集</tspan></text><path d="M226.25861,182.01218h24.00113" fill="none" stroke="#bbbbbb" stroke-width="3" stroke-linecap="round"/><path d="M226.25862,173.44034h24.00113" fill="none" stroke="#bbbbbb" stroke-width="3" stroke-linecap="round"/><path d="M250.25975,164.8685h-24.00113" fill="none" stroke="#bbbbbb" stroke-width="3" stroke-linecap="round"/><path d="M226.25861,156.29667h24.00113" fill="none" stroke="#bbbbbb" stroke-width="3" stroke-linecap="round"/><path d="M226.25861,147.72484h24.00113" fill="none" stroke="#bbbbbb" stroke-width="3" stroke-linecap="round"/><path d="M196.67891,134.53515c0,0.80756 -0.65465,1.4622 -1.4622,1.4622c-0.80756,0 -1.4622,-0.65465 -1.4622,-1.4622c0,-0.80756 0.65465,-1.4622 1.4622,-1.4622c0.80756,0 1.4622,0.65465 1.4622,1.4622z" fill="#9724f2" stroke="none" stroke-width="0" stroke-linecap="butt"/><path d="M206.68346,134.53515h-8.31147" fill="none" stroke="#4b4b4b" stroke-width="1" stroke-linecap="round"/><path d="M214.84102,134.53515c0,0.80755 -0.65464,1.4622 -1.4622,1.4622c-0.80756,0 -1.46221,-0.65464 -1.46221,-1.4622c0,-0.80755 0.65465,-1.46221 1.46221,-1.46221c0.80756,0 1.4622,0.65465 1.4622,1.46221z" fill="#626262" stroke="none" stroke-width="0" stroke-linecap="butt"/><path d="M224.84559,134.53515h-8.31148" fill="none" stroke="#4b4b4b" stroke-width="1" stroke-linecap="round"/><path d="M213.30186,134.5665l11.3898,-0.03136" fill="none" stroke-opacity="0.16368" stroke="#000000" stroke-width="5.5" stroke-linecap="round"/><path d="M233.54185,134.53515c0,0.80755 -0.65464,1.4622 -1.4622,1.4622c-0.80756,0 -1.46221,-0.65464 -1.46221,-1.4622c0,-0.80755 0.65465,-1.46221 1.46221,-1.46221c0.80756,0 1.4622,0.65465 1.4622,1.46221z" fill="url(#color-1)" stroke="none" stroke-width="0" stroke-linecap="butt"/><path d="M235.23493,134.53515h8.31148" fill="none" stroke="#4b4b4b" stroke-width="1" stroke-linecap="round"/><path d="M251.24221,134.53515c0,0.80755 -0.65464,1.4622 -1.4622,1.4622c-0.80755,0 -1.4622,-0.65464 -1.4622,-1.4622c0,-0.80755 0.65465,-1.46221 1.4622,-1.46221c0.80756,0 1.4622,0.65465 1.4622,1.46221z" fill="#df3030" stroke="none" stroke-width="0" stroke-linecap="butt"/><path d="M252.9353,134.53515h8.31147" fill="none" stroke="#4b4b4b" stroke-width="1" stroke-linecap="round"/><g><path d="M191.91039,204.18215h96.35275c3.07213,0 4.90741,0 6.10435,0.51866c1.79539,0.63836 3.19182,2.03478 3.83019,3.79028c0.51866,1.23683 0.51866,3.07212 0.51866,6.14424l-0.17354,25.52395h-117.25915l0.17354,-25.52395c0,-3.07213 0,-4.90741 0.51866,-6.14424c0.63836,-1.7555 2.03477,-3.15192 3.79028,-3.79028c1.23683,-0.51866 3.07213,-0.51866 6.14425,-0.51866z" fill="#ffffff" stroke="none" stroke-width="1" stroke-linecap="butt"/><text transform="translate(185.44062,213.33566) scale(0.13324,0.13324)" font-size="40" xml:space="preserve" fill="#000000" fill-rule="nonzero" stroke="none" stroke-width="1" stroke-linecap="butt" stroke-linejoin="miter" stroke-miterlimit="10" stroke-dasharray="" stroke-dashoffset="0" font-family="Sans Serif" font-weight="normal" text-anchor="start" style="mix-blend-mode: normal"><tspan x="0" dy="0">ブックマーク編集</tspan></text><path d="M196.14815,216.61342l97.59398,-0.23579c0.83452,0 1.33307,0 1.65822,0.14443c0.48772,0.17776 0.86704,0.56662 1.04045,1.05547c0.14089,0.34442 0.1409,0.85548 0.1409,1.71097v2.66645c0,0.85548 0,1.36656 -0.1409,1.71097c-0.17341,0.48885 -0.55274,0.87771 -1.04045,1.05547c-0.32513,0.14443 -0.8237,0.14443 -1.65822,0.14443l-97.59398,0.23579c-0.83452,0 -1.33307,0 -1.66905,-0.14443c-0.47688,-0.17776 -0.85621,-0.56663 -1.02962,-1.05547c-0.14089,-0.34442 -0.14089,-0.85548 -0.14089,-1.71097v-2.66645c0,-0.85548 0,-1.36656 0.14089,-1.71097c0.17341,-0.48885 0.55274,-0.8777 1.02962,-1.05546c0.33598,-0.14443 0.83453,-0.14443 1.66905,-0.14443z" fill="#ffffff" stroke="#d3d3d3" stroke-width="0.5" stroke-linecap="butt"/><text transform="translate(184.96905,221.29194) scale(0.07183,0.07183)" font-size="40" xml:space="preserve" fill="#000000" fill-rule="nonzero" stroke="none" stroke-width="1" stroke-linecap="butt" stroke-linejoin="miter" stroke-miterlimit="10" stroke-dasharray="" stroke-dashoffset="0" font-family="Sans Serif" font-weight="normal" text-anchor="start" style="mix-blend-mode: normal"><tspan x="0" dy="0">名前</tspan></text><path d="M196.14815,227.10578l97.59398,-0.23579c0.83452,0 1.33307,0 1.65822,0.14443c0.48772,0.17776 0.86704,0.56662 1.04045,1.05546c0.14089,0.34442 0.1409,0.85548 0.1409,1.71097v2.66645c0,0.85548 0,1.36656 -0.1409,1.71097c-0.17341,0.48885 -0.55274,0.87771 -1.04045,1.05547c-0.32513,0.14443 -0.8237,0.14443 -1.65822,0.14443l-97.59398,0.23579c-0.83452,0 -1.33307,-0.00001 -1.66905,-0.14444c-0.47688,-0.17776 -0.85619,-0.56662 -1.02961,-1.05546c-0.14089,-0.34442 -0.1409,-0.85548 -0.1409,-1.71097v-2.66645c0,-0.85548 0,-1.36656 0.1409,-1.71097c0.17342,-0.48885 0.55273,-0.87771 1.02961,-1.05547c0.33598,-0.14443 0.83453,-0.14443 1.66905,-0.14443z" fill="#ffffff" stroke="#1a7ffc" stroke-width="0.5" stroke-linecap="butt"/><text transform="translate(184.96905,231.78428) scale(0.07183,0.07183)" font-size="40" xml:space="preserve" fill="#000000" fill-rule="nonzero" stroke="none" stroke-width="1" stroke-linecap="butt" stroke-linejoin="miter" stroke-miterlimit="10" stroke-dasharray="" stroke-dashoffset="0" font-family="Sans Serif" font-weight="normal" text-anchor="start" style="mix-blend-mode: normal"><tspan x="0" dy="0">URL</tspan></text><text transform="translate(193.30859,232.33313) scale(0.07972,0.07972)" font-size="40" xml:space="preserve" fill="#1c1c1c" fill-rule="nonzero" stroke="none" stroke-width="1" stroke-linecap="butt" stroke-linejoin="miter" stroke-miterlimit="10" stroke-dasharray="" stroke-dashoffset="0" font-family="Sans Serif" font-weight="normal" text-anchor="start" style="mix-blend-mode: normal"><tspan x="0" dy="0">Content=customCSS;document.head.appendChild(styleTag);})();</tspan></text><path d="M290.06225,233.65963l-0.04416,-4.12621" fill="none" stroke="#4b7fef" stroke-width="0.5" stroke-linecap="round"/></g><path d="M195.14444,130.89358l-1.11674,-1.11674l1.11674,-1.03697" fill="none" stroke="#b1b5be" stroke-width="0.5" stroke-linecap="round"/><path d="M200.64838,128.73987l1.11674,1.03697l-1.11673,1.11674" data-paper-data="{&quot;index&quot;:null}" fill="none" stroke="#b1b5be" stroke-width="0.5" stroke-linecap="round"/><path d="M208.6251,129.69707c0,0.61676 -0.46426,1.11674 -1.03697,1.11674c-0.57271,0 -1.03697,-0.49998 -1.03697,-1.11674c0,-0.61676 0.46426,-1.11674 1.03697,-1.11674c0.57271,0 1.03697,0.49998 1.03697,1.11674z" fill="none" stroke="#b1b5be" stroke-width="0.5" stroke-linecap="butt"/></g></g></svg>